<svg xmlns="http://www.w3.org/2000/svg" width="1040" height="172" viewBox="0 0 1040 172">
    <g fill="none">
        <g>
            <path fill="#000" d="M343.2 120L414 120 414 96.881 390.211 73.2zM392.4 73.2L414 94.8 414 73.2zM340.8 73.2L340.8 120 387.6 73.2z" transform="translate(0 41)"/>
            <path fill="#FF3131" d="M90 129.6L105.6 129.6 105.6 114 90 114zM106.8 129.6L122.4 129.6 122.4 114 106.8 114zM127.2 129.6L142.8 129.6 142.8 114 127.2 114zM90 114L105.6 114 105.6 98.4 90 98.4zM90 97.2L105.6 97.2 105.6 81.6 90 81.6zM106.8 114L122.4 114 122.4 98.4 106.8 98.4z" transform="translate(0 41)"/>
            <path fill="#000" d="M231.6 100.8L226.2 105.6 220.8 100.8zM204 106.796L225.6 106.8 214.802 96zM204 122.4L204.001 106.8 219.6 106.802zM220.8 89.153L216.847 96 210 92.048 213.953 85.2z" transform="translate(0 41)"/>
            <path fill="#000" d="M208.8 129.6L208.801 118.4 213.6 112.8 213.599 124zM219.6 129.6L214.2 124.8 208.8 129.6z" transform="translate(0 41)"/>
            <path fill="#FF3131" d="M240 129.6L255.6 129.6 255.6 114 240 114zM244.8 112.8L260.4 112.8 260.4 97.2 244.8 97.2z" transform="translate(0 41)"/>
            <g fill="#000">
                <path d="M374.146 122.47c0 4.556-3.694 8.249-8.251 8.249-4.558 0-8.253-3.693-8.253-8.248 0-4.556 3.695-8.249 8.253-8.249 4.557 0 8.251 3.693 8.251 8.249" transform="translate(0 41)"/>
                <path d="M90.037 130.596L968 130.596 968 129.716 90.037 129.716zM1.299 53.204L107.295 53.204 54.297.231zM13.054 128.835L49.472 92.435 13.054 56.035zM13.054 130.596L87.544 130.596 50.298 93.368zM0 52.58L0 .414.347.067 52.537.068zM87.543 54.377L13.049 54.377 87.543 128.836zM0 130.596L11.802 130.596 11.802 54.377 0 54.377z" transform="translate(0 41)"/>
            </g>
        </g>
        <g>
            <path fill="#000" d="M25.915 25.916L16.197 25.915 16.197 35.632 25.914 35.633zM44.271 7.02L37.253 0 30.234 7.019 37.252 14.037zM16.197 44.271l14.037 14.037-14.036 14.038-.001-28.075zm-.001 0v28.075L2.16 58.309l14.036-14.038zM56.149 44.271l14.037 14.037L56.15 72.346l-.001-28.075zm-.001 0v28.075L42.113 58.309l14.036-14.038zM57.228 44.271L43.192 30.234 57.229 30.236zM26.996 37.792L36.713 47.511 36.712 57.229 26.995 47.509zM36.713 15.117v9.719l-.001 9.717-9.717-9.719v-9.717.001l9.718-.001zM8.638 44.271L15.656 37.792 22.676 44.27zM47.511 35.632L37.793 35.633 37.793 25.915zM25.914 15.117L25.915 24.835 16.197 24.835zM16.197 36.714L25.915 36.713 25.915 46.431zM43.192 64.786L33.475 64.787 33.473 55.069z" transform="translate(654 98)"/>
            <path fill="#FF3131" d="M14.037 35.632L14.037 35.632 14.037 21.596 0.001 21.597 0 21.596 0 21.597 0.001 35.633 14.036 35.632 14.037 35.633z" transform="translate(654 98)"/>
        </g>
        <g fill="#000">
            <path d="M24.835 171.686L92.862 171.686 92.862 103.659zM0 92.862L92.862 92.862 92.862 0zM21.596 95.021L21.596 172.766 92.862 100.611 92.862 95.021z" transform="translate(947)"/>
        </g>
    </g>
</svg>
