<?xml version="1.0" encoding="UTF-8"?>
<svg id="Layer_2" data-name="Layer 2" xmlns="http://www.w3.org/2000/svg" viewBox="0 0 17.76 18">
  <defs>
    <style>
      .cls-1 {
        fill: #fff;
      }

      .cls-2 {
        fill: #222;
      }

      .cls-3 {
        fill: none;
        stroke: #222;
        stroke-linecap: round;
        stroke-width: 2px;
      }
    </style>
  </defs>
  <g id="Layer_1-2" data-name="Layer 1">
    <path class="cls-3" d="m4.88,9v-4c0-2.21,1.79-4,4-4h0c2.21,0,4,1.79,4,4v4"/>
    <path class="cls-2" d="m.58,9.67c.15-1.74.22-2.61.79-3.14.57-.53,1.45-.53,3.19-.53h8.64c1.75,0,2.62,0,3.19.53.57.53.65,1.4.79,3.14l.51,6.17c.08,1.01.13,1.52-.17,1.84-.3.32-.81.32-1.82.32H2.06c-1.02,0-1.53,0-1.82-.32-.3-.32-.25-.83-.17-1.84l.51-6.17Z"/>
    <circle class="cls-1" cx="8.88" cy="12" r="1.94"/>
  </g>
</svg>