<svg width="80" height="69" viewBox="0 0 80 69" fill="none" xmlns="http://www.w3.org/2000/svg">
<path d="M76.0295 45.3373L62.0903 37.2947V22.2051L64.0701 21.0628C64.8327 20.6021 65.0786 19.6098 64.6177 18.8477C64.1691 18.1058 63.2148 17.8507 62.4553 18.2696L60.4724 19.415L50.7248 13.7916V1.68984C50.7062 0.737659 49.9174 -0.0182148 48.9646 0.000334216C48.0381 0.0188833 47.2925 0.763937 47.274 1.68984V11.8856L46.4542 11.4126C45.6499 10.884 44.7234 11.442 44.0258 11.8856V1.69139C44.0258 0.878322 43.4489 0.151818 42.643 0.0358865C41.6392 -0.107869 40.7792 0.666554 40.7792 1.64192V13.7885L30.2211 19.8803C29.7215 20.1678 29.4137 20.7011 29.4137 21.2776V37.2793L16.2772 44.8581L2.40441 36.8542C1.61866 36.4229 0.631837 36.7105 0.200295 37.4957C-0.217327 38.2578 0.0378879 39.213 0.781873 39.6628L15.4667 48.1351C15.9694 48.4242 16.5866 48.4242 17.0892 48.1351L31.0007 40.1096L44.0289 47.6266L44.0475 49.9978C44.0691 50.8881 44.8085 51.593 45.6994 51.5729C46.5718 51.5528 47.2693 50.8433 47.2755 49.9715L47.257 47.7348L60.4553 40.1188L74.3993 48.1645C75.1897 48.5973 76.1811 48.3082 76.6142 47.5184C77.0334 46.7532 76.7766 45.7933 76.0295 45.3404V45.3373ZM58.8421 37.3288L45.7505 44.8813L32.6588 37.3288V22.2206L45.7505 14.668L58.8421 22.2206V37.3288Z" fill="#222222"/>
<path d="M67.0724 19.0827C67.6601 19.2296 71.1682 16.8831 71.7204 16.6512C72.4875 16.1875 72.735 15.1905 72.271 14.4223C71.8209 13.6757 70.8604 13.4191 70.0963 13.8395L66.2588 16.053C65.487 16.5199 65.2395 17.523 65.7066 18.2944C65.9958 18.7736 66.5124 19.0703 67.0724 19.0812V19.0827Z" fill="#222222"/>
<path d="M78.9622 10.5996C78.5152 9.8236 77.5221 9.55773 76.7457 10.0045H76.7441L73.9322 11.629C73.1541 12.0742 72.885 13.0666 73.332 13.8426C73.7775 14.6201 74.7705 14.889 75.5469 14.4423C75.55 14.4408 75.5531 14.4392 75.5562 14.4377L78.3682 12.8146C79.1447 12.3679 79.4107 11.3755 78.9637 10.5996H78.9622Z" fill="#222222"/>
<path d="M45.667 60.4146C46.5548 60.4146 47.274 59.6942 47.274 58.807C47.274 58.8039 47.274 58.7992 47.274 58.7962L47.24 54.4155C47.223 53.5329 46.5038 52.8249 45.6206 52.8234C44.7327 52.8311 44.0197 53.5545 44.0274 54.4418L44.0614 58.8224C44.0676 59.7035 44.7853 60.4146 45.6685 60.4146H45.667Z" fill="#222222"/>
<path d="M45.3081 61.7486C44.6523 61.9588 44.2269 62.5941 44.23 63.282V63.2866L44.2563 66.5064C44.264 67.3952 44.991 68.1093 45.8804 68.1032C46.7697 68.097 47.4844 67.3689 47.4782 66.4801L47.4534 63.2603C47.4441 62.2046 46.4186 61.3915 45.3096 61.7486H45.3081Z" fill="#222222"/>
</svg>
