<svg width="58" height="78" viewBox="0 0 58 78" fill="none" xmlns="http://www.w3.org/2000/svg">
<path d="M40.0613 42.4185C41.3854 42.4185 42.4587 41.3459 42.4587 40.0226C42.4587 38.6994 41.3854 37.6267 40.0613 37.6267C38.7372 37.6267 37.6638 38.6994 37.6638 40.0226C37.6638 41.3459 38.7372 42.4185 40.0613 42.4185Z" fill="#222222"/>
<path d="M20.0572 42.4185C21.3813 42.4185 22.4547 41.3459 22.4547 40.0226C22.4547 38.6994 21.3813 37.6267 20.0572 37.6267C18.7332 37.6267 17.6598 38.6994 17.6598 40.0226C17.6598 41.3459 18.7332 42.4185 20.0572 42.4185Z" fill="#222222"/>
<path d="M43.6188 46.3726H43.5631C40.6367 46.2072 37.8757 44.9613 35.817 42.8761C35.4613 42.5082 35.4706 41.9208 35.8387 41.5653C36.2068 41.2097 36.7946 41.219 37.1503 41.5869C37.1627 41.6008 37.1751 41.6147 37.1874 41.6286C38.9229 43.3506 41.2291 44.3785 43.6714 44.5208C44.1834 44.5362 44.5871 44.9628 44.5732 45.4745C44.5577 45.9861 44.1308 46.3896 43.6188 46.3757V46.3726Z" fill="#222222"/>
<path d="M37.6639 24.5774H30.1451C29.6703 24.5774 29.2465 24.2374 29.1892 23.7659C29.1212 23.2017 29.5589 22.7225 30.1096 22.7225H37.6283C38.1031 22.7225 38.5269 23.0626 38.5842 23.5341C38.6522 24.0983 38.2145 24.5774 37.6639 24.5774Z" fill="#222222"/>
<path d="M38.179 57.0136C37.667 57.0136 37.2509 56.5993 37.2509 56.0861C37.2509 55.8651 37.3298 55.6518 37.4721 55.4848C37.8913 55.052 38.1109 54.4646 38.0784 53.8633C38.0073 53.0333 37.3793 52.0857 36.3105 51.1954C35.8991 50.8893 35.814 50.3081 36.1203 49.8969C36.4265 49.4858 37.0081 49.4007 37.4195 49.7068C37.4474 49.7269 37.4737 49.7485 37.4984 49.7717C38.9725 50.9991 39.8139 52.3593 39.9283 53.7057C40.0088 54.8001 39.6314 55.8806 38.8874 56.689C38.7111 56.8961 38.4512 57.0136 38.179 57.0136Z" fill="#222222"/>
<path d="M30.0601 49.0545C28.9572 49.0174 27.907 48.58 27.1027 47.8256C26.7655 47.4871 26.7655 46.9384 27.1042 46.6014C27.4074 46.3 27.8838 46.2644 28.2287 46.5164C29.4955 47.6046 30.6246 47.6046 31.8914 46.5164C32.2765 46.2335 32.8195 46.317 33.1025 46.7019C33.3562 47.0466 33.3191 47.5227 33.0174 47.8256C32.2131 48.5815 31.1629 49.0174 30.0601 49.0545Z" fill="#222222"/>
<path d="M36.7126 52.9281C36.5332 52.6128 36.1341 52.5015 35.8186 52.6808L35.7011 52.7473C35.5572 52.8137 35.4041 52.8586 35.2463 52.8787C35.0267 52.9127 34.8055 52.9328 34.5828 52.9374C34.1064 52.9451 33.63 52.9142 33.1598 52.8431C33.0453 52.8261 32.4916 52.687 32.4297 52.6746C31.9131 52.5695 31.3764 52.687 30.951 52.9992C30.6819 53.1677 30.3756 53.2713 30.0601 53.3022C29.743 53.2713 29.4383 53.1677 29.1676 53.0008C28.7422 52.6885 28.2055 52.5711 27.6889 52.6762C27.627 52.6885 27.0733 52.8277 26.9588 52.8447C26.4886 52.9158 26.0122 52.9467 25.5358 52.9389C25.3131 52.9343 25.0919 52.9142 24.8723 52.8802C24.7145 52.8601 24.5614 52.8153 24.4175 52.7488L24.3 52.6823C23.986 52.503 23.5854 52.6112 23.406 52.9266C23.2575 53.1878 23.3039 53.5171 23.5204 53.7242C23.7958 53.9792 24.1237 54.1694 24.4825 54.2807C24.7748 54.3811 25.0765 54.4538 25.3827 54.4955C25.9612 54.5975 26.5505 54.6238 27.1352 54.5759C27.409 54.5203 27.6874 54.4955 27.9658 54.5017C28.1576 54.5465 28.2751 54.6996 28.4391 54.7954C28.6123 54.8974 28.7995 54.9778 28.9928 55.035C29.6889 55.2452 30.4313 55.2452 31.1258 55.035C31.3191 54.9778 31.5047 54.8974 31.6795 54.7954C31.845 54.7011 31.961 54.5481 32.1528 54.5017C32.4312 54.4955 32.7097 54.5203 32.9834 54.5759C33.5681 54.6238 34.1574 54.5975 34.7359 54.4955C35.0421 54.4538 35.3438 54.3811 35.6361 54.2807C35.9949 54.1694 36.3228 53.9792 36.5982 53.7242C36.8147 53.5171 36.8627 53.1894 36.7157 52.9281H36.7126Z" fill="#222222"/>
<path d="M30.0848 58.5223C29.5651 58.5192 29.0547 58.3986 28.5891 58.1698C28.139 57.9256 27.9704 57.3629 28.2148 56.9131C28.4422 56.4927 28.9526 56.3134 29.3934 56.5004C29.8265 56.7261 30.3431 56.7261 30.7762 56.5004C31.248 56.2995 31.7924 56.5205 31.9935 56.992C32.1807 57.4325 32.0012 57.9426 31.5805 58.1698C31.1149 58.3986 30.6045 58.5192 30.0864 58.5223H30.0848Z" fill="#222222"/>
<path d="M25.129 33.8628C24.0772 33.7793 22.9945 33.7206 21.9211 33.6279C20.843 33.5537 19.7649 33.4671 18.6868 33.3326C18.6868 33.3326 17.4742 33.1796 17.0689 33.1471C16.574 33.1085 16.0775 33.0992 15.581 33.1147C14.5663 33.2553 13.5841 33.5753 12.6793 34.0607L12.6684 34.0669C12.5076 34.1503 12.3019 34.1349 12.1735 34.005C11.9848 33.8164 12.0173 33.5243 12.2121 33.3775C13.1495 32.6757 14.2167 32.1656 15.352 31.8781C15.6444 31.8101 16.7132 31.6988 16.7132 31.6988L17.1277 31.6895L18.7827 31.6725C19.8871 31.6725 20.9899 31.7405 22.085 31.8765C23.1956 31.9894 24.2969 32.1872 25.378 32.467C25.7585 32.569 25.9828 32.9601 25.8807 33.3404C25.791 33.6711 25.4786 33.8922 25.1368 33.8659H25.1275L25.129 33.8628Z" fill="#222222"/>
<path d="M34.8225 32.4748C35.8898 32.1981 36.9756 32.0018 38.0738 31.8921C39.155 31.7576 40.2439 31.6896 41.3328 31.6896L42.9677 31.7066L43.8354 31.7421C44.1339 31.7746 44.4294 31.8256 44.7217 31.8936C45.8415 32.178 46.8949 32.682 47.8214 33.3744C48.041 33.5337 48.0549 33.8691 47.8105 34.0438C47.6837 34.135 47.5105 34.1303 47.3728 34.0561L47.362 34.0499C46.4695 33.5723 45.4997 33.2554 44.4959 33.1163C44.2577 33.09 44.0164 33.0792 43.7766 33.0823L43.0311 33.1472L41.4333 33.3296C40.3707 33.4626 39.305 33.5476 38.2408 33.6202C37.1797 33.7114 36.114 33.7702 35.0746 33.8521H35.0638C34.6771 33.883 34.3384 33.5939 34.3074 33.206C34.2811 32.869 34.4992 32.5598 34.8256 32.4717L34.8225 32.4748Z" fill="#222222"/>
<path d="M13.9229 38.2048C14.2168 38.633 14.6236 38.97 15.0984 39.1818C15.2516 39.2467 15.4124 39.29 15.5764 39.3116C15.8192 39.3441 16.0652 39.307 16.2863 39.2003C16.7968 38.8757 17.3258 38.582 17.8702 38.3192C18.2337 38.1971 18.6065 38.1044 18.9839 38.0425C19.6969 37.9096 20.4332 37.9529 21.1246 38.1708C21.8624 38.4321 22.5568 38.8046 23.1817 39.2761L23.1864 39.2791C23.4602 39.4832 23.8484 39.426 24.0526 39.1508C24.2335 38.9082 24.2119 38.5712 24.0015 38.3532C23.3689 37.619 22.5831 37.0347 21.6969 36.6405C20.7472 36.2541 19.7077 36.1444 18.6993 36.3237C17.7016 36.4659 16.7535 36.8569 15.9461 37.4582C15.813 37.5943 15.6615 37.7117 15.496 37.8076C15.1216 37.8091 14.7504 37.7365 14.4055 37.5927L14.3606 37.5804C14.1487 37.517 13.9245 37.6376 13.861 37.8493C13.8255 37.9699 13.8471 38.1013 13.9229 38.2018V38.2048Z" fill="#222222"/>
<path d="M46.2576 37.8539C46.1942 37.6422 45.9715 37.52 45.758 37.5834L45.7132 37.5958C45.3667 37.7395 44.997 37.8122 44.6227 37.8106C44.4572 37.7148 44.3056 37.5973 44.1726 37.4613C43.3637 36.8585 42.4171 36.4689 41.4194 36.3267C40.4094 36.1474 39.37 36.2572 38.4218 36.6436C37.5371 37.0378 36.7498 37.6221 36.1172 38.3563C35.8867 38.6082 35.9037 38.9993 36.1574 39.2296C36.3724 39.426 36.6956 39.446 36.9323 39.2776L36.9369 39.2745C37.5618 38.8046 38.2548 38.432 38.9926 38.1708C39.6855 37.9528 40.4202 37.9096 41.1333 38.0425C41.5107 38.1043 41.8834 38.1971 42.2469 38.3192C42.7914 38.582 43.3219 38.8757 43.8323 39.2003C44.0535 39.3054 44.2994 39.344 44.5423 39.3116C44.7062 39.2899 44.8671 39.2466 45.0202 39.1817C45.4951 38.97 45.9019 38.633 46.1958 38.2048C46.2685 38.1043 46.2916 37.9745 46.2576 37.8555V37.8539Z" fill="#222222"/>
<path d="M29.3888 73.4651V72.2748C29.3888 71.978 29.5883 71.7044 29.8791 71.6457C30.2766 71.5669 30.6262 71.8683 30.6262 72.2516V73.4882C30.6262 73.8716 30.2766 74.173 29.8791 74.0942C29.5868 74.0354 29.3888 73.7618 29.3888 73.4651ZM29.3888 69.1369V67.9467C29.3888 67.6499 29.5883 67.3763 29.8791 67.3176C30.2766 67.2388 30.6262 67.5402 30.6262 67.9235V69.1601C30.6262 69.5435 30.2766 69.8449 29.8791 69.7661C29.5868 69.7073 29.3888 69.4337 29.3888 69.1369ZM29.3888 64.8088V63.6186C29.3888 63.3218 29.5883 63.0482 29.8791 62.9895C30.2766 62.9106 30.6262 63.2121 30.6262 63.5954V64.832C30.6262 65.2154 30.2766 65.5168 29.8791 65.438C29.5868 65.3792 29.3888 65.1056 29.3888 64.8088ZM29.3888 60.4807V59.2905C29.3888 58.9937 29.5883 58.7201 29.8791 58.6614C30.2766 58.5825 30.6262 58.884 30.6262 59.2673V60.5039C30.6262 60.8873 30.2766 61.1887 29.8791 61.1098C29.5868 61.0511 29.3888 60.7775 29.3888 60.4807ZM29.3888 56.1526V54.9624C29.3888 54.6656 29.5883 54.392 29.8791 54.3333C30.2766 54.2544 30.6262 54.5558 30.6262 54.9392V56.1758C30.6262 56.5591 30.2766 56.8606 29.8791 56.7817C29.5868 56.723 29.3888 56.4494 29.3888 56.1526ZM29.3888 51.8245V50.6343C29.3888 50.3375 29.5883 50.0639 29.8791 50.0051C30.2766 49.9263 30.6262 50.2277 30.6262 50.6111V51.8477C30.6262 52.231 30.2766 52.5325 29.8791 52.4536C29.5868 52.3949 29.3888 52.1213 29.3888 51.8245ZM29.3888 47.4964V46.3062C29.3888 46.0094 29.5883 45.7358 29.8791 45.677C30.2766 45.5982 30.6262 45.8996 30.6262 46.283V47.5196C30.6262 47.9029 30.2766 48.2043 29.8791 48.1255C29.5868 48.0668 29.3888 47.7932 29.3888 47.4964ZM29.3888 43.1683V41.978C29.3888 41.6813 29.5883 41.4077 29.8791 41.3489C30.2766 41.2701 30.6262 41.5715 30.6262 41.9549V43.1915C30.6262 43.5748 30.2766 43.8762 29.8791 43.7974C29.5868 43.7387 29.3888 43.4651 29.3888 43.1683ZM29.3888 38.8402V37.6499C29.3888 37.3531 29.5883 37.0795 29.8791 37.0208C30.2766 36.942 30.6262 37.2434 30.6262 37.6267V38.8633C30.6262 39.2467 30.2766 39.5481 29.8791 39.4693C29.5868 39.4105 29.3888 39.1369 29.3888 38.8402ZM29.3888 34.512V33.3218C29.3888 33.025 29.5883 32.7514 29.8791 32.6927C30.2766 32.6139 30.6262 32.9153 30.6262 33.2986V34.5352C30.6262 34.9186 30.2766 35.22 29.8791 35.1412C29.5868 35.0824 29.3888 34.8088 29.3888 34.512ZM29.3888 30.1839V28.9937C29.3888 28.6969 29.5883 28.4233 29.8791 28.3646C30.2766 28.2857 30.6262 28.5872 30.6262 28.9705V30.2071C30.6262 30.5905 30.2766 30.8919 29.8791 30.8131C29.5868 30.7543 29.3888 30.4807 29.3888 30.1839ZM29.3888 25.8558V24.6656C29.3888 24.3688 29.5883 24.0952 29.8791 24.0365C30.2766 23.9576 30.6262 24.2591 30.6262 24.6424V25.879C30.6262 26.2624 30.2766 26.5638 29.8791 26.4849C29.5868 26.4262 29.3888 26.1526 29.3888 25.8558ZM29.3888 21.5277V20.3375C29.3888 20.0407 29.5883 19.7671 29.8791 19.7084C30.2766 19.6295 30.6262 19.9309 30.6262 20.3143V21.5509C30.6262 21.9342 30.2766 22.2357 29.8791 22.1568C29.5868 22.0981 29.3888 21.8245 29.3888 21.5277ZM29.3888 17.1996V16.0094C29.3888 15.7126 29.5883 15.439 29.8791 15.3802C30.2766 15.3014 30.6262 15.6028 30.6262 15.9862V17.2228C30.6262 17.6061 30.2766 17.9076 29.8791 17.8287C29.5868 17.77 29.3888 17.4964 29.3888 17.1996ZM29.3888 12.8715V11.6813C29.3888 11.3845 29.5883 11.1109 29.8791 11.0521C30.2766 10.9733 30.6262 11.2747 30.6262 11.6581V12.8947C30.6262 13.278 30.2766 13.5794 29.8791 13.5006C29.5868 13.4419 29.3888 13.1683 29.3888 12.8715ZM29.3888 8.54338V7.35315C29.3888 7.05636 29.5883 6.78276 29.8791 6.72402C30.2766 6.64519 30.6262 6.94661 30.6262 7.32996V8.56656C30.6262 8.94991 30.2766 9.25133 29.8791 9.1725C29.5868 9.11376 29.3888 8.84016 29.3888 8.54338ZM29.3888 4.21527V3.02503C29.3888 2.72825 29.5883 2.45465 29.8791 2.39591C30.2766 2.31708 30.6262 2.6185 30.6262 3.00185V4.23845C30.6262 4.6218 30.2766 4.92322 29.8791 4.84439C29.5868 4.78565 29.3888 4.51205 29.3888 4.21527Z" fill="#222222"/>
<path d="M13.0644 59.0478L12.2926 58.6258C12.1565 58.5516 12.0436 58.4403 11.9693 58.3028L11.5471 57.533C11.346 57.1635 10.9578 56.9332 10.537 56.9332C10.1163 56.9332 9.7281 57.1635 9.52547 57.533L9.10475 58.3028C9.03051 58.4403 8.9176 58.5516 8.77994 58.6274L8.00966 59.0494C7.36312 59.4033 7.19143 60.2844 7.73434 60.8641C7.81631 60.9506 7.9153 61.0202 8.02048 61.0774L8.77994 61.4932C8.9176 61.5674 9.02896 61.6802 9.10475 61.8178L9.52856 62.5907C9.73118 62.9586 10.1179 63.1873 10.5386 63.1873C10.9593 63.1873 11.3475 62.957 11.5486 62.5876L11.9693 61.8178C12.0436 61.6818 12.1565 61.5689 12.2926 61.4932L13.035 61.0867C13.3954 60.8888 13.6506 60.524 13.663 60.1128C13.6785 59.6507 13.4341 59.2519 13.0629 59.0494L13.0644 59.0478ZM10.5355 60.5534C10.3777 60.3385 10.1875 60.1499 9.97402 59.9923C10.1875 59.8346 10.3777 59.646 10.5355 59.4312C10.6933 59.6445 10.8835 59.8346 11.097 59.9923C10.8835 60.1499 10.6933 60.3401 10.5355 60.5534Z" fill="#222222"/>
<path d="M7.40644 54.1014L6.32062 53.5078C6.06386 53.3672 5.85351 53.157 5.7143 52.9019L5.12034 51.8168C4.79089 51.2139 4.03298 50.9929 3.42975 51.3222C3.22094 51.4365 3.04926 51.6081 2.9348 51.8168L2.34239 52.9019C2.20319 53.1585 1.99128 53.3687 1.73452 53.5094L0.647156 54.103C0.0439251 54.4338 -0.17726 55.1896 0.153744 55.7925C0.268203 55.9996 0.438345 56.1712 0.647156 56.2856L1.73452 56.8791C1.99128 57.0183 2.20164 57.23 2.34085 57.4851L2.91778 58.5393C3.13123 58.9288 3.52566 59.2024 3.96957 59.2179C4.46917 59.2349 4.89917 58.9705 5.1188 58.5702L5.71275 57.4851C5.85196 57.2285 6.06386 57.0183 6.31907 56.8791L7.40644 56.2856C8.00967 55.9548 8.23085 55.1989 7.89985 54.5961C7.78539 54.3889 7.61525 54.2173 7.40644 54.103V54.1014ZM5.42969 55.2484C4.86204 55.5591 4.39493 56.0243 4.08403 56.5932L4.0268 56.6998L3.96802 56.5932C3.65713 56.0259 3.19156 55.5591 2.62235 55.2499L2.51718 55.1912L2.62235 55.1324C3.19001 54.8233 3.65713 54.3565 3.96802 53.7892L4.0268 53.6841L4.08558 53.7907C4.39493 54.358 4.86204 54.8233 5.42969 55.134L5.53488 55.1927L5.42969 55.2499V55.2484Z" fill="#222222"/>
<path d="M56.2002 37.2589C56.1584 37.214 56.112 37.1754 56.0687 37.1352C57.0694 31.47 57.0261 21.3268 54.3255 15.7311C49.925 6.61583 39.7242 0 30.0725 0H30.0539C20.3976 0 10.1968 6.61583 5.79787 15.7311C3.09725 21.3268 3.05395 31.47 4.05469 37.1352C4.01138 37.1785 3.96498 37.2156 3.92321 37.2589C2.60229 38.6918 2.08413 40.7461 2.46618 43.0431C3.05858 46.6153 6.66095 50.4488 10.302 50.4627C11.5348 54.647 13.38 58.0152 15.7991 60.3602C17.6135 62.178 19.6474 63.7624 21.8562 65.0747C21.5468 67.7674 20.277 73.9875 15.0706 76.0805C14.5942 76.2706 14.3637 76.8116 14.5555 77.2862C14.6963 77.637 15.0381 77.8674 15.4171 77.8674C15.5362 77.8674 15.6537 77.8442 15.7636 77.8009C21.4556 75.5132 23.1199 69.2869 23.6071 65.9913C25.1136 66.7008 26.6898 67.2511 28.3092 67.6345C29.4646 67.9096 30.668 67.9096 31.8219 67.6345C33.4413 67.2511 35.0175 66.6993 36.524 65.9913C37.0097 69.2838 38.674 75.5132 44.3675 77.8009C44.8424 77.991 45.3838 77.7607 45.574 77.2862C45.7658 76.8116 45.5353 76.2706 45.0589 76.0805C39.8526 73.9906 38.5812 67.7705 38.2734 65.0747C40.4821 63.7624 42.5161 62.178 44.3304 60.3602C46.748 58.0152 48.5948 54.647 49.8276 50.4627C53.467 50.4472 57.0694 46.6138 57.6634 43.0431C58.0377 40.7461 57.5211 38.6902 56.2002 37.2589ZM4.29134 42.8174C3.94642 41.3319 4.313 39.7707 5.28126 38.5928C6.13506 37.7349 7.29977 37.2558 8.51087 37.265C8.52324 38.3563 8.56191 39.4214 8.62533 40.4617C7.95559 40.1942 7.23325 40.086 6.51556 40.1448C6.00514 40.1973 5.63547 40.6518 5.68651 41.1619C5.7391 41.6673 6.18765 42.0368 6.69344 41.9904C7.49002 41.9085 8.27885 42.2115 8.81402 42.8066C9.01201 44.7666 9.33683 46.7111 9.78539 48.6279C7.3075 48.2399 4.71051 45.3292 4.29444 42.8158H4.29134V42.8174ZM43.0312 59.0602C40.1697 61.8317 36.7792 64.5739 31.3842 65.8615C30.5133 66.0686 29.6054 66.0686 28.733 65.8615C23.3395 64.5754 19.9475 61.8333 17.0876 59.0602C12.4504 54.5667 10.0684 45.8285 10.384 34.461C10.551 31.6524 10.9222 28.8608 11.493 26.1047C16.8478 25.321 20.1362 20.7811 22.5955 17.3542C24.4068 14.6831 27.4539 13.1173 30.6819 13.1946C33.3934 13.2409 35.8945 14.6615 37.3221 16.9662C37.6825 17.5675 38.3136 17.9539 39.0112 18.0049C39.2339 18.0173 39.4381 18.0235 39.6329 18.0297C40.0336 18.0158 40.4342 18.0652 40.8193 18.175C42.5517 18.7809 43.5308 20.2834 44.5702 21.874C45.0234 22.5974 45.5183 23.293 46.055 23.9576C46.7016 24.729 47.4966 25.3612 48.3937 25.8172C49.2027 28.6289 49.6528 31.5334 49.7332 34.458C50.0487 45.8285 47.6667 54.5651 43.0296 59.0602H43.0312ZM47.4347 22.772C46.946 22.1615 46.4928 21.5231 46.0798 20.86C44.9754 19.1704 43.7241 17.2553 41.4163 16.4468C40.8564 16.2706 40.2718 16.1871 39.684 16.1995C39.5061 16.1949 39.319 16.1887 39.1163 16.1779C39.005 16.1609 38.9075 16.0913 38.8549 15.9924C37.0994 13.1884 34.0523 11.4509 30.7438 11.3659C26.9187 11.2902 23.3117 13.1343 21.1323 16.2752C18.4657 19.9928 15.1495 24.6254 9.46521 24.3935C8.95633 24.3626 8.52015 24.7583 8.50932 25.2731C8.50932 25.3179 8.51396 25.3627 8.52478 25.406C8.66399 25.9563 9.02593 26.1851 9.39405 26.1913C9.45592 26.1913 9.5178 26.1882 9.57658 26.1913C9.03986 28.8917 8.69029 31.6261 8.53098 34.3745C8.5217 34.7006 8.52324 35.0175 8.5186 35.339C7.56116 35.3545 6.61765 35.5647 5.74374 35.9542C4.95799 30.5132 5.10029 21.4412 7.46836 16.5334C11.575 8.02555 21.072 1.85181 30.0539 1.85181H30.071C39.0514 1.85181 48.5499 8.02555 52.6535 16.5334C55.0215 21.4427 55.1623 30.5147 54.375 35.9527C53.5011 35.5632 52.5591 35.3545 51.6032 35.3375C51.5986 35.016 51.6001 34.6991 51.5908 34.3729C51.5135 31.7266 51.1562 29.0957 50.5236 26.5251C50.72 26.5669 50.9165 26.6071 51.1206 26.638C51.1655 26.6442 51.2088 26.6473 51.2537 26.6473C51.7502 26.6643 52.1662 26.2747 52.1832 25.7785C52.1987 25.3102 51.8507 24.9067 51.3851 24.8542C49.8508 24.6857 48.4401 23.9406 47.4378 22.7674L47.4347 22.772ZM55.8382 42.7741C55.4206 45.289 52.8221 48.2121 50.3395 48.5985C50.7896 46.6771 51.116 44.7264 51.314 42.7633C51.8492 42.1682 52.638 41.8652 53.4346 41.9471C53.9435 41.9904 54.392 41.621 54.4477 41.114C54.4972 40.6039 54.1244 40.151 53.614 40.1015C52.8948 40.0459 52.1709 40.1602 51.5027 40.4323C51.5676 39.3905 51.6063 38.3192 51.6171 37.2233C52.8282 37.214 53.9914 37.6932 54.8467 38.5511C55.815 39.729 56.1816 41.2886 55.8382 42.7741Z" fill="#222222"/>
<path d="M56.2002 37.2589C56.1584 37.214 56.112 37.1754 56.0687 37.1352C57.0694 31.47 57.0261 21.3268 54.3255 15.7311C49.925 6.61583 39.7242 0 30.0725 0H30.0539C20.3976 0 10.1968 6.61583 5.79787 15.7311C3.09725 21.3268 3.05395 31.47 4.05469 37.1352C4.01138 37.1785 3.96498 37.2156 3.92321 37.2589C2.60229 38.6918 2.08413 40.7461 2.46618 43.0431C3.05858 46.6153 6.66095 50.4488 10.302 50.4627C11.5348 54.647 13.38 58.0152 15.7991 60.3602C17.6135 62.178 19.6474 63.7624 21.8562 65.0747C21.5468 67.7674 20.277 73.9875 15.0706 76.0805C14.5942 76.2706 14.3637 76.8116 14.5555 77.2862C14.6963 77.637 15.0381 77.8674 15.4171 77.8674C15.5362 77.8674 15.6537 77.8442 15.7636 77.8009C21.4556 75.5132 23.1199 69.2869 23.6071 65.9913C25.1136 66.7008 26.6898 67.2511 28.3092 67.6345C29.4646 67.9096 30.668 67.9096 31.8219 67.6345C33.4413 67.2511 35.0175 66.6993 36.524 65.9913C37.0097 69.2838 38.674 75.5132 44.3675 77.8009C44.8424 77.991 45.3838 77.7607 45.574 77.2862C45.7658 76.8116 45.5353 76.2706 45.0589 76.0805C39.8526 73.9906 38.5812 67.7705 38.2734 65.0747C40.4821 63.7624 42.5161 62.178 44.3304 60.3602C46.748 58.0152 48.5948 54.647 49.8276 50.4627C53.467 50.4472 57.0694 46.6138 57.6634 43.0431C58.0377 40.7461 57.5211 38.6902 56.2002 37.2589ZM4.29134 42.8174C3.94642 41.3319 4.313 39.7707 5.28126 38.5928C6.13506 37.7349 7.29977 37.2558 8.51087 37.265C8.52324 38.3563 8.56191 39.4214 8.62533 40.4617C7.95559 40.1942 7.23325 40.086 6.51556 40.1448C6.00514 40.1973 5.63547 40.6518 5.68651 41.1619C5.7391 41.6673 6.18765 42.0368 6.69344 41.9904C7.49002 41.9085 8.27885 42.2115 8.81402 42.8066C9.01201 44.7666 9.33683 46.7111 9.78539 48.6279C7.3075 48.2399 4.71051 45.3292 4.29444 42.8158H4.29134V42.8174ZM43.0312 59.0602C40.1697 61.8317 36.7792 64.5739 31.3842 65.8615C30.5133 66.0686 29.6054 66.0686 28.733 65.8615C23.3395 64.5754 19.9475 61.8333 17.0876 59.0602C12.4504 54.5667 10.0684 45.8285 10.384 34.461C10.551 31.6524 10.9222 28.8608 11.493 26.1047C16.8478 25.321 20.1362 20.7811 22.5955 17.3542C24.4068 14.6831 27.4539 13.1173 30.6819 13.1946C33.3934 13.2409 35.8945 14.6615 37.3221 16.9662C37.6825 17.5675 38.3136 17.9539 39.0112 18.0049C39.2339 18.0173 39.4381 18.0235 39.6329 18.0297C40.0336 18.0158 40.4342 18.0652 40.8193 18.175C42.5517 18.7809 43.5308 20.2834 44.5702 21.874C45.0234 22.5974 45.5183 23.293 46.055 23.9576C46.7016 24.729 47.4966 25.3612 48.3937 25.8172C49.2027 28.6289 49.6528 31.5334 49.7332 34.458C50.0487 45.8285 47.6667 54.5651 43.0296 59.0602H43.0312ZM47.4347 22.772C46.946 22.1615 46.4928 21.5231 46.0798 20.86C44.9754 19.1704 43.7241 17.2553 41.4163 16.4468C40.8564 16.2706 40.2718 16.1871 39.684 16.1995C39.5061 16.1949 39.319 16.1887 39.1163 16.1779C39.005 16.1609 38.9075 16.0913 38.8549 15.9924C37.0994 13.1884 34.0523 11.4509 30.7438 11.3659C26.9187 11.2902 23.3117 13.1343 21.1323 16.2752C18.4657 19.9928 15.1495 24.6254 9.46521 24.3935C8.95633 24.3626 8.52015 24.7583 8.50932 25.2731C8.50932 25.3179 8.51396 25.3627 8.52478 25.406C8.66399 25.9563 9.02593 26.1851 9.39405 26.1913C9.45592 26.1913 9.5178 26.1882 9.57658 26.1913C9.03986 28.8917 8.69029 31.6261 8.53098 34.3745C8.5217 34.7006 8.52324 35.0175 8.5186 35.339C7.56116 35.3545 6.61765 35.5647 5.74374 35.9542C4.95799 30.5132 5.10029 21.4412 7.46836 16.5334C11.575 8.02555 21.072 1.85181 30.0539 1.85181H30.071C39.0514 1.85181 48.5499 8.02555 52.6535 16.5334C55.0215 21.4427 55.1623 30.5147 54.375 35.9527C53.5011 35.5632 52.5591 35.3545 51.6032 35.3375C51.5986 35.016 51.6001 34.6991 51.5908 34.3729C51.5135 31.7266 51.1562 29.0957 50.5236 26.5251C50.72 26.5669 50.9165 26.6071 51.1206 26.638C51.1655 26.6442 51.2088 26.6473 51.2537 26.6473C51.7502 26.6643 52.1662 26.2747 52.1832 25.7785C52.1987 25.3102 51.8507 24.9067 51.3851 24.8542C49.8508 24.6857 48.4401 23.9406 47.4378 22.7674L47.4347 22.772ZM55.8382 42.7741C55.4206 45.289 52.8221 48.2121 50.3395 48.5985C50.7896 46.6771 51.116 44.7264 51.314 42.7633C51.8492 42.1682 52.638 41.8652 53.4346 41.9471C53.9435 41.9904 54.392 41.621 54.4477 41.114C54.4972 40.6039 54.1244 40.151 53.614 40.1015C52.8948 40.0459 52.1709 40.1602 51.5027 40.4323C51.5676 39.3905 51.6063 38.3192 51.6171 37.2233C52.8282 37.214 53.9914 37.6932 54.8467 38.5511C55.815 39.729 56.1816 41.2886 55.8382 42.7741Z" fill="#222222"/>
</svg>
