<svg width="73" height="72" viewBox="0 0 73 72" fill="none" xmlns="http://www.w3.org/2000/svg">
<path fill-rule="evenodd" clip-rule="evenodd" d="M27.977 12.2013C30.8988 13.3961 33.5701 15.285 35.6381 17.9515C35.8128 18.1787 36.0835 18.3101 36.3712 18.3101C36.6589 18.3101 36.928 18.1771 37.1044 17.9515C44.238 8.75268 58.5067 8.74496 65.6403 14.7007C72.8218 20.6967 72.6207 32.6871 65.4392 44.6791C65.4346 44.6868 65.4299 44.6946 65.4253 44.7038C60.3365 53.8068 47.3345 62.8757 36.3728 69.0263C25.411 62.8773 12.4075 53.8068 7.31868 44.7038C7.31404 44.6961 7.30941 44.6884 7.30477 44.6791C0.123223 32.6871 -0.0778619 20.6967 7.10368 14.7007C8.79582 13.2879 10.8963 12.2167 13.204 11.5227C13.6944 11.3758 13.9712 10.858 13.8243 10.3695C13.6773 9.87954 13.1592 9.6013 12.6689 9.7497C10.1106 10.5179 7.79045 11.7143 5.91424 13.2802C-1.83341 19.7492 -2.03759 32.6825 5.70696 45.6205C11.0061 55.0867 24.5819 64.5869 35.9211 70.8982C36.2011 71.0543 36.5429 71.0543 36.8229 70.8982C48.1621 64.5869 61.7378 55.0882 67.037 45.6205C74.78 32.6841 74.5774 19.7492 66.8297 13.2802C59.2692 6.96888 44.3787 6.76948 36.3728 15.9265C34.215 13.4564 31.5593 11.6633 28.6808 10.4855C28.2075 10.2923 27.6661 10.5195 27.4712 10.9925C27.2779 11.4655 27.5053 12.0065 27.9786 12.2013H27.977Z" fill="#222222"/>
<path fill-rule="evenodd" clip-rule="evenodd" d="M40.682 68.7017C40.8615 68.6152 41.0099 68.4714 41.1012 68.2952C43.1599 64.3381 44.7376 59.4426 43.5435 52.8825C45.9843 53.1638 48.9154 53.204 51.2664 52.5331C53.3561 51.938 54.9987 50.7864 55.6762 48.9022C56.1557 47.5666 55.8695 45.0872 54.7296 42.274C52.2826 36.2409 46.0601 28.5647 37.0982 27.8845C33.2561 13.5461 24.5804 4.68122 18.4847 1.45214C16.7863 0.552509 15.2659 0.0810537 14.078 0.00994895C13.1051 -0.0487897 12.3163 0.15525 11.7486 0.550963C11.3681 0.815287 11.0448 1.27901 10.8685 1.96224C10.5916 3.02881 10.6519 4.80488 11.1036 7.02304C12.4616 13.6914 17.289 24.6477 25.3151 31.8247C24.4118 32.5713 23.6353 33.6703 23.0228 34.8435C22.4041 36.0307 21.9401 37.2781 21.6385 38.2055C19.7499 36.8097 16.4445 35.2671 12.9504 34.1387C8.50043 32.7011 3.76892 31.9483 1.37301 32.7598C0.930643 32.9098 0.66925 33.3658 0.762055 33.8233C2.52071 42.4023 7.73479 49.5885 13.699 55.3124C22.5093 63.7677 32.9359 69.0124 35.8778 70.8704C36.1826 71.0621 36.5692 71.0605 36.8724 70.8673C38.9481 69.538 40.682 68.7002 40.682 68.7002V68.7017ZM39.5854 67.173C39.0518 67.4435 37.8144 68.0911 36.3542 68.997C32.905 66.9365 23.2162 61.888 14.972 53.9769C9.47488 48.7012 4.61037 42.1457 2.76201 34.3319C3.45959 34.2329 4.29483 34.2407 5.21514 34.3211C7.34501 34.5065 9.90179 35.1048 12.3704 35.9024C16.3904 37.2008 20.1969 38.9908 21.3817 40.4608C21.6029 40.7359 21.9618 40.8611 22.3051 40.7839C22.6501 40.7066 22.9208 40.4407 23.0043 40.0975C23.0043 40.0975 23.5626 37.7959 24.6562 35.6999C25.3089 34.4494 26.1272 33.2375 27.1975 32.8109C27.4032 32.7289 27.5796 32.5805 27.6832 32.3842C27.8951 31.9792 27.7868 31.5062 27.4573 31.2326C19.2055 24.3911 14.2636 13.2988 12.9102 6.65205C12.5807 5.0352 12.4616 3.69657 12.5869 2.7753C12.6132 2.58208 12.6503 2.41205 12.7014 2.2683C12.7323 2.18328 12.7462 2.10599 12.8004 2.06889C13.0803 1.87413 13.4794 1.82776 13.9574 1.85713C14.9457 1.91741 16.197 2.3394 17.6092 3.08755C23.5162 6.21615 31.8872 14.9419 35.4664 28.999C35.5685 29.3978 35.9211 29.6822 36.3326 29.6962C43.6363 29.9512 48.971 35.3675 51.7969 40.4546C52.9245 42.4842 53.653 44.4643 53.9315 46.0564C54.0923 46.9761 54.1155 47.7444 53.9253 48.2746C53.4489 49.6024 52.2254 50.3304 50.7529 50.7509C48.2054 51.4758 44.9139 51.2548 42.5118 50.8699C42.0988 50.8034 41.6797 51.0214 41.5049 51.4356C41.4275 51.6196 41.4229 51.8267 41.4678 52.0215C42.9635 58.5291 41.542 63.3287 39.5885 67.173H39.5854Z" fill="#222222"/>
<path d="M42.4003 41.0884C43.4399 41.0884 44.2827 40.2462 44.2827 39.2072C44.2827 38.1683 43.4399 37.326 42.4003 37.326C41.3607 37.326 40.5179 38.1683 40.5179 39.2072C40.5179 40.2462 41.3607 41.0884 42.4003 41.0884Z" fill="#222222"/>
</svg>
