<svg width="80" height="80" viewBox="0 0 80 80" fill="none" xmlns="http://www.w3.org/2000/svg">
<path d="M0.0231563 53.7613C0.16391 54.528 0.818201 55.0412 1.54826 55.0412H9.27116V77.6092C9.27116 78.4624 9.9641 79.1549 10.8179 79.1549H68.3569C69.2107 79.1549 69.9036 78.4624 69.9036 77.6092V55.0412H77.608C78.0148 55.0412 78.4138 54.899 78.7061 54.6161C79.2645 54.0735 79.3295 53.245 78.9243 52.6391L69.6438 38.7273C69.3576 38.2976 68.8735 38.0394 68.3569 38.0394H62.538C61.7631 38.0394 61.0701 38.5897 60.9588 39.3564C60.8211 40.3117 61.5589 41.1309 62.4885 41.1309H67.5386L74.7573 51.9512H49.7062L42.4875 41.1309H48.5198C49.2948 41.1309 49.9877 40.5807 50.0991 39.814C50.2367 38.8587 49.499 38.0394 48.5694 38.0394H10.8287C10.3121 38.0394 9.82799 38.2976 9.54184 38.7273L0.278392 52.6143C0.0525671 52.9513 -0.0495408 53.3625 0.0231563 53.7628V53.7613ZM12.3647 55.0412H30.3069C30.8235 55.0412 31.3077 54.783 31.5938 54.3533L38.0406 44.6893V76.0634H12.3647V55.0412ZM47.581 54.3533C47.8671 54.783 48.3513 55.0412 48.8679 55.0412H66.8101V76.0634H41.1341V44.6893L47.581 54.3533ZM11.6562 41.1294H36.7073L29.4887 51.9497H4.43758L11.6562 41.1294Z" fill="#222222"/>
<path d="M30.3178 3.86902C29.0541 2.01412 26.8732 0 23.3574 0C18.4017 0 14.8503 3.99268 14.8503 8.80616C14.8503 14.1514 19.1797 17.6618 25.7317 22.9761C26.8794 23.9066 28.0673 24.8696 29.3279 25.9208C29.614 26.1588 29.9667 26.2794 30.3178 26.2794C30.6689 26.2794 31.0216 26.1603 31.3077 25.9208C32.5683 24.8712 33.7562 23.9082 34.9039 22.9761C41.4559 17.6618 45.7853 14.1514 45.7853 8.80616C45.7853 3.98805 42.2308 0 37.2782 0C33.7624 0 31.5815 2.01412 30.3178 3.86902ZM42.6918 8.80616C42.6918 12.6783 38.8187 15.8208 32.955 20.5755C32.1028 21.2665 31.2288 21.9744 30.3178 22.7257C29.4052 21.976 28.5329 21.2665 27.6806 20.5755C21.8169 15.8208 17.9438 12.6798 17.9438 8.80616C17.9438 5.54771 20.2717 3.09151 23.3574 3.09151C27.396 3.09151 28.7757 7.58502 28.8314 7.77051C29.0216 8.43209 29.628 8.88809 30.3178 8.88809C31.0077 8.88809 31.614 8.43209 31.8042 7.77051C31.8181 7.72413 33.1994 3.09151 37.2782 3.09151C40.3639 3.09151 42.6918 5.54771 42.6918 8.80616Z" fill="#222222"/>
<path d="M58.1591 30.9151C58.5226 30.9151 58.8861 30.7884 59.1784 30.5318C60.0183 29.7976 60.8102 29.1221 61.5759 28.4698C65.8789 24.8048 68.9864 22.1585 68.9864 18.2199C68.9864 14.5039 66.2687 11.5917 62.7994 11.5917C60.5922 11.5917 59.1119 12.7139 58.1591 13.9149C57.2063 12.7123 55.7261 11.5917 53.5189 11.5917C50.0495 11.5917 47.3319 14.5023 47.3319 18.2199C47.3319 22.1585 50.4409 24.8048 54.7424 28.4698C55.508 29.1221 56.2999 29.796 57.1398 30.5318C57.4321 30.7869 57.7956 30.9151 58.1591 30.9151ZM50.4254 18.2214C50.4254 16.5072 51.5097 14.6847 53.5189 14.6847C55.7988 14.6847 56.6309 17.4795 56.6696 17.6124C56.8568 18.2802 57.4646 18.7454 58.1576 18.7454C58.8505 18.7454 59.4646 18.2832 59.6486 17.6124C59.6827 17.4934 60.5133 14.6832 62.7994 14.6832C64.8086 14.6832 65.8929 16.5056 65.8929 18.2199C65.8929 20.7302 63.5124 22.7582 59.5697 26.1171C59.1119 26.5082 58.6433 26.9055 58.1591 27.3213C57.6765 26.9055 57.2079 26.5067 56.7485 26.1171C52.8058 22.7582 50.4254 20.7317 50.4254 18.2199V18.2214Z" fill="#222222"/>
<path d="M55.5297 41.117C56.3839 41.117 57.0764 40.425 57.0764 39.5713C57.0764 38.7176 56.3839 38.0255 55.5297 38.0255C54.6754 38.0255 53.9829 38.7176 53.9829 39.5713C53.9829 40.425 54.6754 41.117 55.5297 41.117Z" fill="#222222"/>
</svg>
