<svg width="72" height="80" viewBox="0 0 72 80" fill="none" xmlns="http://www.w3.org/2000/svg">
<path d="M71.6114 10.573C70.9726 8.09358 69.4645 5.94962 67.3641 4.5368C64.931 2.9014 62.0231 2.36347 59.1787 3.02196C56.3744 3.67118 53.9398 5.47198 52.5014 7.96219C51.3846 9.89902 50.9237 12.0924 51.1696 14.3075C51.2191 14.7496 51.0938 15.1793 50.8216 15.5163C47.4172 19.7099 45.7405 21.7751 42.0686 26.301L34.4323 35.71H2.51825C1.21435 35.71 0.156372 36.7673 0.156372 38.0704V42.4418C0.156372 43.7263 0.241443 45.0139 0.410039 46.2691C0.487376 46.8518 0.985428 47.2754 1.55927 47.2754C1.66754 47.2754 1.77736 47.2599 1.88718 47.229C2.44246 47.0698 2.7812 46.504 2.70541 45.9321C2.55383 44.7882 2.47649 43.6135 2.47649 42.4418V38.0719C2.47649 38.0488 2.4966 38.0287 2.5198 38.0287H65.3858C65.409 38.0287 65.4291 38.0488 65.4291 38.0719V42.4418C65.4291 43.5903 65.3533 44.7511 65.2048 45.8935C65.1228 46.5288 65.5698 47.11 66.2055 47.1919C66.8412 47.2738 67.4228 46.8271 67.5048 46.1918C67.6657 44.9505 67.7476 43.6892 67.7476 42.4418V38.0719C67.7476 36.7673 66.6897 35.71 65.3842 35.71H60.2119C62.0695 30.8579 63.0208 28.3785 64.8475 23.6114C65.0022 23.208 65.3193 22.8818 65.7384 22.6979C67.9487 21.7256 69.7012 20.0701 70.8071 17.9138C71.9625 15.6616 72.2471 13.0555 71.6083 10.5761L71.6114 10.573ZM68.7113 16.8518C67.8513 18.5305 66.4886 19.8166 64.7701 20.5725C63.7802 21.0099 63.027 21.7936 62.6496 22.7782C60.7208 27.8097 59.7695 30.2937 57.6953 35.7069H37.3835L43.8349 27.7571C47.5085 23.2312 49.1836 21.166 52.5895 16.9708C53.2562 16.147 53.5578 15.1098 53.4402 14.0478C53.2484 12.3274 53.6073 10.6209 54.475 9.11687C55.6103 7.15222 57.454 5.78886 59.6659 5.27567C61.8777 4.76403 64.1391 5.18293 66.0323 6.45663C67.661 7.55257 68.8319 9.21735 69.3284 11.148C69.8249 13.0771 69.6053 15.102 68.7082 16.8503L68.7113 16.8518Z" fill="#222222"/>
<path d="M66.5675 50.5523C66.6155 50.3915 66.5984 50.2138 66.5118 50.07C65.8282 48.9447 64.5382 49.2616 64.2598 50.1689C62.0603 57.3242 56.8926 63.2429 50.0823 66.4071C49.2579 66.7904 48.7258 67.6282 48.7258 68.5418V72.3181C48.7258 72.3304 48.7165 72.3397 48.7041 72.3397H24.776C24.6043 72.3397 24.4372 72.4062 24.3243 72.5345C23.4458 73.5191 24.1294 74.6583 25.0776 74.6583H49.8302C50.5015 74.6583 51.0475 74.1142 51.0475 73.4418V68.5402C51.0475 68.5232 51.0567 68.5109 51.0629 68.5078C58.5631 65.0236 64.2304 58.4665 66.5706 50.5507L66.5675 50.5523Z" fill="#222222"/>
<path d="M28.2701 60.0943C30.4835 58.2209 32.2854 55.879 33.5213 53.2435C33.9219 52.3903 33.8786 51.3917 33.4053 50.5709C32.932 49.7501 32.0875 49.2122 31.1486 49.1334C30.7341 49.0978 30.3118 49.0746 29.8942 49.0638C29.2492 49.0468 28.7217 49.5554 28.7063 50.1953C28.6908 50.8352 29.1981 51.367 29.8385 51.3809C30.2082 51.3902 30.5809 51.4103 30.9491 51.4412C31.3435 51.4752 31.5879 51.9003 31.4208 52.2558C30.2515 54.7491 28.5114 56.9487 26.363 58.6583C25.2075 57.8947 23.933 57.2254 22.6198 56.7045C22.3476 56.5963 22.0676 56.4927 21.7846 56.3938C21.7691 56.3876 21.7521 56.383 21.7366 56.3783C21.0947 55.5436 20.2595 54.9006 19.3144 54.494C21.1783 53.2281 23.2896 52.2929 25.571 51.7921C26.1959 51.6545 26.5919 51.0362 26.4542 50.4102C26.3165 49.7841 25.6979 49.39 25.0714 49.5275C24.2269 49.713 23.3947 49.9542 22.5812 50.2463C22.0645 47.3929 20.9354 44.6646 19.2711 42.2795C18.7313 41.5051 17.8435 41.0444 16.8953 41.0444C15.9472 41.0444 15.0609 41.5066 14.5195 42.281C12.8552 44.6661 11.7261 47.3975 11.2095 50.2509C8.47792 49.2709 5.54684 48.8845 2.64669 49.1334C1.70627 49.2137 0.861746 49.7517 0.388441 50.5709C-0.084863 51.3902 -0.128172 52.3903 0.272435 53.242C1.50829 55.8775 3.31025 58.2193 5.52364 60.0928C3.31025 61.9678 1.50829 64.3096 0.272435 66.9435C-0.128172 67.7984 -0.084863 68.7985 0.389988 69.6192C0.863292 70.4385 1.70782 70.9764 2.64669 71.0553C3.21899 71.1047 3.79283 71.1294 4.36513 71.1294C6.69607 71.1294 9.01774 70.726 11.211 69.9392C11.7276 72.7927 12.8568 75.5209 14.5211 77.906C15.0609 78.6805 15.9487 79.1442 16.8969 79.1442C17.845 79.1442 18.7329 78.682 19.2727 77.9076C20.937 75.5225 22.0661 72.7927 22.5827 69.9392C25.3189 70.9208 28.2484 71.3041 31.147 71.0568C32.0859 70.9764 32.9304 70.44 33.4037 69.6208C33.8786 68.8 33.9219 67.7999 33.5213 66.9435C32.2854 64.3111 30.485 61.9693 28.2701 60.0943ZM13.2125 53.4027C13.2249 52.9344 13.2558 52.4614 13.3038 51.9946C13.6147 48.9881 14.6943 46.0882 16.4251 43.6088C16.5736 43.3971 16.784 43.3646 16.8969 43.3646C17.0098 43.3646 17.2217 43.3955 17.3686 43.6088C18.9432 45.8672 19.9795 48.4718 20.3879 51.1877C18.7669 51.9977 17.3516 52.9622 16.0957 54.052C15.0408 54.1911 14.0694 54.5992 13.2543 55.2066C13.2218 54.763 13.2048 54.3163 13.2048 53.8711C13.2048 53.7165 13.2063 53.5604 13.211 53.4043L13.2125 53.4027ZM2.37446 52.2573C2.26464 52.0255 2.34353 51.8276 2.40076 51.7302C2.45799 51.6329 2.58946 51.4659 2.84777 51.4427C5.59324 51.2078 8.36965 51.6128 10.9264 52.6175C10.8212 54.3225 10.9295 56.0522 11.2621 57.7633C10.8738 58.6985 10.7161 59.7326 10.8398 60.8023C7.19103 59.0386 4.1656 56.0754 2.37601 52.2589L2.37446 52.2573ZM11.675 67.2542C8.9172 68.4878 5.86392 69.0025 2.84622 68.7444C2.45025 68.7103 2.20742 68.2837 2.37446 67.9266C3.5438 65.4349 5.28389 63.2368 7.43232 61.5241C9.7478 63.0529 11.556 63.597 12.0664 63.8103C12.6959 64.6249 13.525 65.2772 14.4808 65.6899C14.1127 65.9388 13.7353 66.1769 13.3486 66.401C12.8165 66.7086 12.269 66.9884 11.6766 67.2558L11.675 67.2542ZM20.4188 68.1925C20.1064 71.199 19.0283 74.0988 17.2975 76.5798C17.149 76.7915 16.9386 76.824 16.8257 76.824C16.7128 76.824 16.5024 76.7931 16.354 76.5798C14.7794 74.3214 13.743 71.7168 13.3347 69.0009C14.9371 68.2018 16.3122 67.2635 17.6238 66.1382C18.6694 66.0022 19.6439 65.6034 20.4683 64.9897C20.5008 65.4318 20.5178 65.8754 20.5178 66.3191C20.5178 66.9405 20.4853 67.5711 20.4204 68.1925H20.4188ZM20.623 60.7466C20.5611 61.1021 20.4482 61.4468 20.2858 61.7745C19.6408 63.0683 18.3431 63.8721 16.8984 63.8721C14.8134 63.8721 13.1182 62.178 13.1182 60.0943C13.1182 58.0106 14.8134 56.3149 16.8984 56.3149C18.1683 56.3149 19.3469 56.9472 20.0507 58.006C20.4621 58.6243 20.6802 59.3462 20.6802 60.0943C20.6802 60.3154 20.6616 60.5333 20.6245 60.7466H20.623ZM31.3945 68.4584C31.2306 68.7428 30.9645 68.7366 30.9491 68.7444C28.2036 68.9793 25.4272 68.5743 22.8704 67.5696C22.9725 65.9141 22.875 64.1736 22.5348 62.4269C22.9415 61.4484 23.073 60.388 22.957 59.3864C26.8904 61.3155 29.7302 64.3297 31.4193 67.9251C31.5291 68.1601 31.4502 68.3595 31.3945 68.4584Z" fill="#222222"/>
<path d="M13.2172 18.7871C11.0703 18.7871 9.32556 20.5323 9.32556 22.6762C9.32556 24.8202 11.0718 26.5653 13.2172 26.5653C15.3625 26.5653 17.1088 24.8202 17.1088 22.6762C17.1088 20.5323 15.3625 18.7871 13.2172 18.7871ZM13.2172 24.2483C12.351 24.2483 11.6457 23.5434 11.6457 22.6778C11.6457 21.8121 12.351 21.1073 13.2172 21.1073C14.0834 21.1073 14.7887 21.8121 14.7887 22.6778C14.7887 23.5434 14.0834 24.2483 13.2172 24.2483Z" fill="#222222"/>
<path d="M25.7195 13.2642C23.5726 13.2642 21.8279 15.0093 21.8279 17.1533C21.8279 19.2972 23.5742 21.0424 25.7195 21.0424C27.8648 21.0424 29.6111 19.2972 29.6111 17.1533C29.6111 15.0093 27.8648 13.2642 25.7195 13.2642ZM25.7195 18.7253C24.8533 18.7253 24.148 18.0204 24.148 17.1548C24.148 16.2892 24.8533 15.5843 25.7195 15.5843C26.5857 15.5843 27.291 16.2892 27.291 17.1548C27.291 18.0204 26.5857 18.7253 25.7195 18.7253Z" fill="#222222"/>
<path d="M15.9502 0C13.8033 0 12.0586 1.74516 12.0586 3.88912C12.0586 6.03308 13.8049 7.77824 15.9502 7.77824C18.0955 7.77824 19.8418 6.03308 19.8418 3.88912C19.8418 1.74516 18.0955 0 15.9502 0ZM15.9502 5.46115C15.084 5.46115 14.3787 4.75629 14.3787 3.89066C14.3787 3.02504 15.084 2.32018 15.9502 2.32018C16.8164 2.32018 17.5217 3.02504 17.5217 3.89066C17.5217 4.75629 16.8164 5.46115 15.9502 5.46115Z" fill="#222222"/>
</svg>
