<svg width="80" height="79" viewBox="0 0 80 79" fill="none" xmlns="http://www.w3.org/2000/svg">
<path d="M24.4385 20.9883H26.7586V23.3069H24.4385V20.9883Z" fill="#222222"/>
<path d="M29.0789 20.9883H31.399V23.3069H29.0789V20.9883Z" fill="#222222"/>
<path d="M65.4398 18.8489L67.6795 18.2353C67.4645 17.4531 67.2077 16.6725 66.9185 15.9166L64.7515 16.7482C65.0144 17.433 65.2464 18.141 65.4413 18.8489H65.4398Z" fill="#222222"/>
<path d="M38.2046 4.75781H40.5247V7.07644H38.2046V4.75781Z" fill="#222222"/>
<path d="M35.5612 42.0012L33.4003 41.1526C31.9387 44.9876 26.3967 45.0618 24.8097 41.2871L22.6768 42.2037C25.0587 47.8673 33.3694 47.7514 35.5612 42.0012Z" fill="#222222"/>
<path d="M49.8455 44.0957C47.9879 44.0957 46.3127 42.9936 45.578 41.2871L43.4451 42.2037C45.7853 47.7762 53.9073 47.7746 56.2459 42.2037L54.113 41.2871C53.3783 42.9936 51.7031 44.0957 49.8455 44.0957Z" fill="#222222"/>
<path d="M57.3534 37.0533L58.9435 35.3653C57.0348 33.5707 54.5399 32.5814 51.9197 32.5814H43.1543V34.9001H51.9197C53.9475 34.9001 55.8763 35.6652 57.3534 37.0533Z" fill="#222222"/>
<path d="M36.0392 34.9001V32.5814H27.1717C24.5515 32.5814 22.0566 33.5692 20.1479 35.3653L21.738 37.0533C23.2152 35.6652 25.1439 34.9001 27.1717 34.9001H36.0392Z" fill="#222222"/>
<path d="M33.2271 57.0369L31.8938 58.9366C36.0406 62.3094 43.0103 62.3094 47.1571 58.9366L45.8238 57.0369C42.5385 59.5935 36.2649 59.6013 33.2271 57.0369Z" fill="#222222"/>
<path d="M61.1273 57.7927C62.2672 55.0459 63.0391 52.1012 63.4675 48.801C66.595 46.8518 68.5207 43.377 68.5207 39.6749V24.9794C68.479 23.2234 68.3831 21.6792 68.1866 20.7409L65.9021 21.1243C66.4079 23.3022 66.1418 32.3604 66.2037 34.9H63.7892C63.7552 19.206 53.4044 8.12449 37.0878 9.53267C34.3098 7.973 34.2804 4.01896 37.0445 2.4392H43.9089C52.498 2.4392 60.2333 7.17384 64.0986 14.796L66.1805 13.7557C62.0863 5.51989 53.1801 0.0401896 43.9074 0.125206C34.8574 -0.00618302 26.9303 -0.425082 19.5539 5.80122L16.3629 0L12.7559 6.54781L6.16211 10.1278L12.9864 13.9705C11.4226 16.5628 10.7451 20.4503 10.5193 24.5837V39.7676C10.5193 43.4604 12.4697 46.9276 15.622 48.8706C16.4356 57.1527 21.1733 65.7518 27.9975 70.8867V78.954H30.3177V72.5144C33.1838 74.3693 36.2912 75.7049 39.5827 76.4994C42.8587 75.7095 46.0001 74.3446 48.8786 72.482V78.9525H51.1987V70.8326C52.6125 69.7274 53.9411 68.497 55.1646 67.1537L58.1081 72.5531L61.6857 65.9898L68.2284 62.4006L61.6857 58.8113L61.1288 57.7896L61.1273 57.7927ZM66.2424 37.2202C66.3367 40.5498 66.3599 43.2131 63.879 45.7219V37.2202H66.2424ZM10.9895 10.0335L14.4279 8.15385L16.3088 4.71764L18.1896 8.15385L21.628 10.0335L18.1896 11.9131L16.3088 15.3493L14.4279 11.9131L10.9895 10.0335ZM12.8363 24.8465C12.8363 21.9961 13.356 19.2493 14.3784 16.6493L16.3351 20.2231L19.9266 13.6598L26.4941 10.0706L21.3326 7.24959C24.87 4.43477 29.1638 2.75763 33.671 2.42683C32.1351 4.61562 32.3068 7.85861 34.0716 9.86964C21.6945 11.91 15.2199 22.8942 15.1456 34.9H12.8379V24.8449L12.8363 24.8465ZM12.8363 39.7815V37.2202H15.1564V45.7296C13.5896 44.1684 12.8363 42.0275 12.8363 39.7815ZM39.5162 74.1529C20.5747 69.0272 16.3598 52.347 17.441 35.2617L20.7294 31.9755C26.01 26.7786 30.3857 31.0898 36.3515 25.8311L34.8218 24.0859C28.624 29.2426 25.1577 23.5094 17.6374 31.7853C18.1881 26.9023 19.8199 22.5232 22.3194 19.2261C29.7763 8.59594 51.4555 9.24052 57.7786 20.7765C59.1892 23.0549 60.0755 25.4153 60.6339 27.8483C55.9766 21.3701 48.7533 17.0713 40.6793 16.164V13.8809H38.3576C38.4566 17.0868 38.3252 19.8908 36.2711 22.5309L38.1241 23.9298C39.3537 22.3052 40.1534 20.4503 40.4937 18.4779C49.6968 19.5352 57.6966 25.4091 61.449 33.9216C61.3856 40.3967 62.0198 49.1071 59.6718 55.1602L58.1065 52.2991L54.5149 58.8623L47.949 62.4516L53.5529 65.5137C49.7417 69.729 44.8169 72.7695 39.5223 74.1545L39.5162 74.1529ZM59.9765 64.3528L58.0957 67.7891L56.2148 64.3528L52.7764 62.4732L56.2148 60.5936L58.0957 57.1574L59.9765 60.5936L63.4149 62.4732L59.9765 64.3528Z" fill="#222222"/>
<path d="M72.0785 50.9758H69.7584V53.2945H67.4382V55.6131H69.7584V57.9317H72.0785V55.6131H74.3986V53.2945H72.0785V50.9758Z" fill="#222222"/>
<path d="M4.64024 16.351H2.32012V18.6696H0V20.9882H2.32012V23.3068H4.64024V20.9882H6.96036V18.6696H4.64024V16.351Z" fill="#222222"/>
<path d="M76.7188 46.3386H79.0389V48.6573H76.7188V46.3386Z" fill="#222222"/>
<path d="M76.7188 60.2504H79.0389V62.569H76.7188V60.2504Z" fill="#222222"/>
</svg>
